:FULLY-SPECIFIED
:FORCE-ALL-JOINTS-BE-3DOF
:DEGREES
102
root -2.83539 16.509 -36.1835 3.2237 0.143825 -2.20436
lfemur -21.1157 5.83772 -9.19848
ltibia 44.4294 0 0
lfoot -21.6446 -0.0121643 0
ltoes -8.1273 0 0
rfemur -21.7694 -5.85197 13.7567
rtibia 47.115 0 0
rfoot -25.5327 1.4099 0
rtoes -6.94905 0 0
lowerback 7.49866 1.99097 -1.74427
upperback -3.64755 2.57152 1.19601
thorax -8.19662 1.38762 1.86841
lowerneck -2.71269 -3.84787 -6.56123
upperneck 6.15137 -5.19972 5.92024
head 2.84919 -2.57323 2.93626
lclavicle 1.3882e-14 1.93576e-14 0
lhumerus -26.8172 -4.24606 89.7509
lradius 25.0136 0 0
lwrist -30.1075 0 0
lhand -28.6573 30.3418 0
lfingers 7.12502 0 0
lthumb -2.05309 60.1277 0
rclavicle 3.33852e-14 1.33849e-14 0
rhumerus -32.4963 2.83849 -80.2999
rradius 30.661 0 0
rwrist 2.65892 0 0
rhand -19.9879 -27.8745 0
rfingers 7.12502 0 0
rthumb 5.96652 -57.2276 0
103
root -2.83395 16.5074 -36.1796 3.2345 0.0984108 -2.27888
lfemur -21.1967 5.84118 -9.19716
ltibia 44.4641 0 0
lfoot -21.6697 -0.00255267 0
ltoes -8.16852 0 0
rfemur -21.7939 -5.86624 13.7743
rtibia 47.1312 0 0
rfoot -25.5466 1.40723 0
rtoes -6.95891 0 0
lowerback 7.46285 2.00172 -1.7131
upperback -3.65393 2.59173 1.22056
thorax -8.18338 1.39663 1.87488
lowerneck -2.78693 -3.84815 -6.54758
upperneck 6.2223 -5.198 5.90326
head 2.88589 -2.57151 2.92713
lclavicle 1.46735e-14 2.06464e-14 0
lhumerus -26.8328 -4.23494 89.7559
lradius 25.0203 0 0
lwrist -30.0992 0 0
lhand -28.6493 30.3302 0
lfingers 7.12502 0 0
lthumb -2.03993 60.1355 0
rclavicle 3.35444e-14 1.30133e-14 0
rhumerus -32.5035 2.82091 -80.2881
rradius 30.6725 0 0
rwrist 2.66662 0 0
rhand -19.9847 -27.8535 0
rfingers 7.12502 0 0
rthumb 5.9563 -57.2045 0
104
root -2.83199 16.5088 -36.1758 3.28806 0.12855 -2.29513
lfemur -21.2778 5.84464 -9.19584
ltibia 44.4989 0 0
lfoot -21.6949 0.00705894 0
ltoes -8.20974 0 0
rfemur -21.8184 -5.88051 13.792
rtibia 47.1474 0 0
rfoot -25.5605 1.40457 0
rtoes -6.96877 0 0
lowerback 7.37791 1.98235 -1.72172
upperback -3.69357 2.56616 1.22081
thorax -8.17576 1.3851 1.88581
lowerneck -2.69112 -3.83772 -6.52947
upperneck 6.19823 -5.18968 5.90533
head 2.85845 -2.5683 2.92596
lclavicle 1.5465e-14 2.19353e-14 0
lhumerus -26.8483 -4.22382 89.7609
lradius 25.0269 0 0
lwrist -30.0908 0 0
lhand -28.6413 30.3185 0
lfingers 7.12502 0 0
lthumb -2.02677 60.1434 0
rclavicle 3.37037e-14 1.26418e-14 0
rhumerus -32.5107 2.80333 -80.2763
rradius 30.6841 0 0
rwrist 2.67432 0 0
rhand -19.9815 -27.8325 0
rfingers 7.12502 0 0
rthumb 5.94608 -57.1815 0
105
root -2.82947 16.5078 -36.1734 3.33607 0.149049 -2.30513
lfemur -21.316 5.8443 -9.18154
ltibia 44.5337 0 0
lfoot -21.72 0.0166705 0
ltoes -8.25095 0 0
rfemur -21.843 -5.89478 13.8097
rtibia 47.1636 0 0
rfoot -25.5744 1.4019 0
rtoes -6.97863 0 0
lowerback 7.32754 1.97635 -1.73243
upperback -3.7182 2.55747 1.21668
thorax -8.17283 1.38162 1.88991
lowerneck -2.70842 -3.84124 -6.48948
upperneck 6.22184 -5.19492 5.88401
head 2.86762 -2.57029 2.91068
lclavicle 1.62565e-14 2.32242e-14 0
lhumerus -26.8638 -4.21269 89.7659
lradius 25.0336 0 0
lwrist -30.0825 0 0
lhand -28.6333 30.3069 0
lfingers 7.12502 0 0
lthumb -2.01361 60.1512 0
rclavicle 3.3863e-14 1.22703e-14 0
rhumerus -32.5179 2.78575 -80.2645
rradius 30.6956 0 0
rwrist 2.68202 0 0
rhand -19.9782 -27.8116 0
rfingers 7.12502 0 0
rthumb 5.93586 -57.1585 0
106
root -2.8277 16.5086 -36.1716 3.37051 0.181047 -2.35253
lfemur -21.3541 5.84395 -9.16725
ltibia 44.5807 0 0
lfoot -21.7451 0.0262822 0
ltoes -8.29217 0 0
rfemur -21.8675 -5.90905 13.8274
rtibia 47.1798 0 0
rfoot -25.5883 1.39924 0
rtoes -6.98849 0 0
lowerback 7.2879 1.96665 -1.72144
upperback -3.74694 2.54747 1.23139
thorax -8.18044 1.37702 1.90154
lowerneck -2.62272 -3.81502 -6.49001
upperneck 6.17888 -5.16558 5.92283
head 2.83645 -2.55589 2.92642
lclavicle 1.7048e-14 2.45131e-14 0
lhumerus -26.8794 -4.20157 89.7709
lradius 25.0403 0 0
lwrist -30.0742 0 0
lhand -28.6253 30.2953 0
lfingers 7.12502 0 0
lthumb -2.00045 60.159 0
rclavicle 3.40222e-14 1.18987e-14 0
rhumerus -32.5252 2.76818 -80.2527
rradius 30.7072 0 0
rwrist 2.68779 0 0
rhand -19.975 -27.7906 0
rfingers 7.12502 0 0
rthumb 5.92564 -57.1355 0
107
root -2.82629 16.507 -36.1703 3.4023 0.213531 -2.41533
lfemur -21.3922 5.84361 -9.15296
ltibia 44.6277 0 0
lfoot -21.7702 0.0358938 0
ltoes -8.33339 0 0
rfemur -21.8921 -5.92332 13.8451
rtibia 47.196 0 0
rfoot -25.6022 1.39657 0
rtoes -6.99836 0 0
lowerback 7.25834 1.9637 -1.68444
upperback -3.76594 2.54875 1.24141
thorax -8.18246 1.37621 1.89179
lowerneck -2.58878 -3.83133 -6.48817
upperneck 6.117 -5.18956 5.95709
head 2.81215 -2.56727 2.93718
lclavicle 1.78395e-14 2.5802e-14 0
lhumerus -26.8949 -4.19045 89.7759
lradius 25.0469 0 0
lwrist -30.0658 0 0
lhand -28.6174 30.2836 0
lfingers 7.12502 0 0
lthumb -1.98728 60.1669 0
rclavicle 3.41815e-14 1.15272e-14 0
rhumerus -32.5324 2.7506 -80.2409
rradius 30.7188 0 0
rwrist 2.69355 0 0
rhand -19.9718 -27.7696 0
rfingers 7.12502 0 0
rthumb 5.91542 -57.1124 0
108
root -2.82553 16.5074 -36.169 3.42396 0.261848 -2.42925
lfemur -21.4304 5.84326 -9.13866
ltibia 44.6747 0 0
lfoot -21.7954 0.0455054 0
ltoes -8.3746 0 0
rfemur -21.9166 -5.93759 13.8628
rtibia 47.2122 0 0
rfoot -25.6162 1.39391 0
rtoes -7.00822 0 0
lowerback 7.24104 1.94876 -1.71989
upperback -3.76487 2.52627 1.25615
thorax -8.17255 1.36759 1.9311
lowerneck -2.62736 -3.83082 -6.51922
upperneck 6.10566 -5.18775 6.0019
head 2.81851 -2.56529 2.95808
lclavicle 1.86309e-14 2.70908e-14 0
lhumerus -26.9105 -4.17932 89.7809
lradius 25.0536 0 0
lwrist -30.0575 0 0
lhand -28.6094 30.272 0
lfingers 7.12502 0 0
lthumb -1.97412 60.1747 0
rclavicle 3.43407e-14 1.11556e-14 0
rhumerus -32.5396 2.73302 -80.2291
rradius 30.7303 0 0
rwrist 2.69932 0 0
rhand -19.9686 -27.7486 0
rfingers 7.12502 0 0
rthumb 5.9052 -57.0894 0
109
root -2.8256 16.5061 -36.1688 3.44697 0.304728 -2.46249
lfemur -21.4686 5.84292 -9.12437
ltibia 44.7216 0 0
lfoot -21.8205 0.055117 0
ltoes -8.41582 0 0
rfemur -21.9411 -5.95185 13.8805
rtibia 47.2284 0 0
rfoot -25.6301 1.39124 0
rtoes -7.01808 0 0
lowerback 7.25777 1.94003 -1.73835
upperback -3.79625 2.51382 1.27161
thorax -8.21727 1.36363 1.95866
lowerneck -2.5926 -3.82731 -6.54524
upperneck 6.07989 -5.1855 6.04281
head 2.80581 -2.5642 2.97763
lclavicle 1.94224e-14 2.83797e-14 0
lhumerus -26.926 -4.1682 89.7859
lradius 25.0603 0 0
lwrist -30.0492 0 0
lhand -28.6014 30.2603 0
lfingers 7.12502 0 0
lthumb -1.96096 60.1825 0
rclavicle 3.45e-14 1.07841e-14 0
rhumerus -32.5403 2.71523 -80.2334
rradius 30.7419 0 0
rwrist 2.70508 0 0
rhand -19.9654 -27.7276 0
rfingers 7.12502 0 0
rthumb 5.89498 -57.0664 0
110
root -2.82539 16.5055 -36.169 3.47992 0.359864 -2.46819
lfemur -21.5067 5.84257 -9.11007
ltibia 44.7686 0 0
lfoot -21.8456 0.0647286 0
ltoes -8.44698 0 0
rfemur -21.9657 -5.96612 13.8982
rtibia 47.2446 0 0
rfoot -25.644 1.38858 0
rtoes -7.02794 0 0
lowerback 7.23704 1.93051 -1.77475
upperback -3.80793 2.4974 1.27023
thorax -8.21861 1.35774 1.98049
lowerneck -2.56799 -3.83384 -6.50813
upperneck 6.03252 -5.19545 6.03853
head 2.7842 -2.56871 2.96891
lclavicle 2.02139e-14 2.96686e-14 0
lhumerus -26.9231 -4.10307 89.7438
lradius 25.0669 0 0
lwrist -30.0409 0 0
lhand -28.5934 30.2487 0
lfingers 7.12502 0 0
lthumb -1.9478 60.1904 0
rclavicle 3.24505e-14 9.96411e-15 0
rhumerus -32.5411 2.69745 -80.2377
rradius 30.7402 0 0
rwrist 2.71085 0 0
rhand -19.9621 -27.7067 0
rfingers 7.12502 0 0
rthumb 5.88476 -57.0434 0
111
root -2.82608 16.504 -36.1699 3.49051 0.395155 -2.46735
lfemur -21.5449 5.84223 -9.09578
ltibia 44.8156 0 0
lfoot -21.8708 0.0743402 0
ltoes -8.47813 0 0
rfemur -21.9902 -5.98039 13.9159
rtibia 47.2789 0 0
rfoot -25.6579 1.38591 0
rtoes -7.0378 0 0
lowerback 7.28634 1.93037 -1.82523
upperback -3.82931 2.49109 1.26721
thorax -8.27249 1.35789 2.0048
lowerneck -2.56829 -3.84005 -6.50772
upperneck 6.01939 -5.20537 6.06933
head 2.78179 -2.57279 2.97905
lclavicle 1.92413e-14 2.90495e-14 0
lhumerus -26.9201 -4.03794 89.7016
lradius 25.0736 0 0
lwrist -30.0325 0 0
lhand -28.5854 30.2371 0
lfingers 7.12502 0 0
lthumb -1.93464 60.1982 0
rclavicle 3.04009e-14 9.14412e-15 0
rhumerus -32.5418 2.67966 -80.242
rradius 30.7385 0 0
rwrist 2.71662 0 0
rhand -19.9589 -27.6857 0
rfingers 7.12502 0 0
rthumb 5.87454 -57.0203 0
112
root -2.82553 16.5026 -36.171 3.49626 0.452685 -2.44557
lfemur -21.583 5.84188 -9.08148
ltibia 44.8626 0 0
lfoot -21.8959 0.0839518 0
ltoes -8.50929 0 0
rfemur -22.0148 -5.99466 13.9336
rtibia 47.3131 0 0
rfoot -25.6784 1.4163 0
rtoes -7.04766 0 0
lowerback 7.31681 1.92025 -1.87485
upperback -3.8331 2.47072 1.25351
thorax -8.29502 1.3504 2.02022
lowerneck -2.60079 -3.86294 -6.49011
upperneck 6.01557 -5.23527 6.0726
head 2.78819 -2.58664 2.97519
lclavicle 1.82688e-14 2.84303e-14 0
lhumerus -26.9172 -3.97281 89.6595
lradius 25.0803 0 0
lwrist -30.0242 0 0
lhand -28.5774 30.2254 0
lfingers 7.12502 0 0
lthumb -1.92147 60.206 0
rclavicle 2.83514e-14 8.32414e-15 0
rhumerus -32.5425 2.66187 -80.2463
rradius 30.7368 0 0
rwrist 2.72238 0 0
rhand -19.9557 -27.6647 0
rfingers 7.12502 0 0
rthumb 5.86432 -56.9973 0
113
root -2.82557 16.4994 -36.1722 3.50116 0.477172 -2.49343
lfemur -21.6212 5.84154 -9.06718
ltibia 44.9096 0 0
lfoot -21.9129 0.114978 0
ltoes -8.54044 0 0
rfemur -22.0393 -6.00893 13.9513
rtibia 47.3474 0 0
rfoot -25.6989 1.4467 0
rtoes -7.05752 0 0
lowerback 7.34304 1.91664 -1.86154
upperback -3.83422 2.46776 1.26366
thorax -8.31126 1.34866 2.02313
lowerneck -2.64662 -3.87007 -6.5026
upperneck 6.02941 -5.24374 6.09551
head 2.80354 -2.58982 2.98456
lclavicle 1.72962e-14 2.78112e-14 0
lhumerus -26.9142 -3.90769 89.6174
lradius 25.087 0 0
lwrist -30.0159 0 0
lhand -28.5695 30.2138 0
lfingers 7.12502 0 0
lthumb -1.90831 60.2139 0
rclavicle 2.63018e-14 7.50415e-15 0
rhumerus -32.5432 2.64409 -80.2506
rradius 30.735 0 0
rwrist 2.72815 0 0
rhand -19.9525 -27.6437 0
rfingers 7.12502 0 0
rthumb 5.8541 -56.9743 0
114
root -2.82597 16.4974 -36.1731 3.51095 0.49795 -2.453
lfemur -21.6593 5.84119 -9.05289
ltibia 44.9566 0 0
lfoot -21.9299 0.146004 0
ltoes -8.5716 0 0
rfemur -22.0638 -6.0232 13.9689
rtibia 47.3816 0 0
rfoot -25.7195 1.47709 0
rtoes -7.06738 0 0
lowerback 7.33165 1.92248 -1.94212
upperback -3.8083 2.46548 1.24547
thorax -8.27943 1.35089 2.0502
lowerneck -2.72119 -3.88924 -6.47279
upperneck 6.02767 -5.26678 6.09547
head 2.81741 -2.5994 2.97696
lclavicle 1.63236e-14 2.71921e-14 0
lhumerus -26.9113 -3.84256 89.5753
lradius 25.0936 0 0
lwrist -30.0075 0 0
lhand -28.5615 30.2021 0
lfingers 7.12502 0 0
lthumb -1.89515 60.2217 0
rclavicle 2.42523e-14 6.68416e-15 0
rhumerus -32.544 2.6263 -80.2549
rradius 30.7333 0 0
rwrist 2.73391 0 0
rhand -19.9493 -27.6227 0
rfingers 7.12502 0 0
rthumb 5.86082 -56.9569 0
115
root -2.82496 16.4956 -36.1736 3.51267 0.534137 -2.50332
lfemur -21.6974 5.84085 -9.0386
ltibia 45.0036 0 0
lfoot -21.9469 0.177031 0
ltoes -8.60276 0 0
rfemur -22.0884 -6.03746 13.9866
rtibia 47.4159 0 0
rfoot -25.74 1.50749 0
rtoes -7.07725 0 0
lowerback 7.36144 1.91789 -1.8963
upperback -3.83966 2.46437 1.24975
thorax -8.32869 1.34864 2.02782
lowerneck -2.62161 -3.89381 -6.47178
upperneck 5.99604 -5.27716 6.09344
head 2.78864 -2.60614 2.97687
lclavicle 1.53511e-14 2.6573e-14 0
lhumerus -26.9083 -3.77743 89.5331
lradius 25.1003 0 0
lwrist -29.9992 0 0
lhand -28.5535 30.1905 0
lfingers 7.12502 0 0
lthumb -1.88481 60.215 0
rclavicle 2.22028e-14 5.86417e-15 0
rhumerus -32.5447 2.60852 -80.2593
rradius 30.7316 0 0
rwrist 2.73968 0 0
rhand -19.946 -27.6018 0
rfingers 7.12502 0 0
rthumb 5.86753 -56.9395 0
